# xmcd
#
# Track frame offsets:
#	150
#	16551
#	28839
#	44498
#	59845
#	79269
#	93586
#	109107
#	127650
#	142935
#	157125
#	177794
#
# Disc length: 2602 seconds
#
# Revision: 1
# Processed by: cddbd v1.4PL0 Copyright (c) Steve Scherf et al.
# Submitted via: audiograbber 1.81.03
#
DISCID=9a0a280c
DTITLE=Dan Bliss - Open for Business
DYEAR=1900
DGENRE=
TTITLE0=I'll Let you know if i do
TTITLE1=Please dont tease me
TTITLE2=open for business
TTITLE3=youre so pretty
TTITLE4=ive been to memphis
TTITLE5=back by my side
TTITLE6=hello baby
TTITLE7=get together with you
TTITLE8=key to the highway
TTITLE9=fishin blues
TTITLE10=pony boy
TTITLE11=is you is or is you aint my baby
EXTD=
EXTT0=
EXTT1=
EXTT2=
EXTT3=
EXTT4=
EXTT5=
EXTT6=
EXTT7=
EXTT8=
EXTT9=
EXTT10=
EXTT11=
PLAYORDER=
